<?xml version="1.0" standalone="no"?>
<!DOCTYPE svg PUBLIC "-//W3C//DTD SVG 20010904//EN"
 "http://www.w3.org/TR/2001/REC-SVG-20010904/DTD/svg10.dtd">
<svg version="1.0" xmlns="http://www.w3.org/2000/svg"
 width="488.000000pt" height="488.000000pt" viewBox="0 0 488.000000 488.000000"
 preserveAspectRatio="xMidYMid meet">
<metadata>
Created by potrace 1.11, written by Peter Selinger 2001-2013
</metadata>
<g transform="translate(0.000000,488.000000) scale(0.100000,-0.100000)"
fill="#000000" stroke="none">
<path d="M1416 4840 c-9 -22 -16 -59 -16 -81 0 -34 2 -39 17 -31 12 7 21 4 33
-11 17 -20 17 -20 28 13 7 18 15 31 18 28 3 -4 -1 -19 -9 -35 -19 -37 -12 -53
24 -53 71 0 189 103 222 193 6 16 -5 17 -147 17 l-154 0 -16 -40z"/>
<path d="M1918 4873 c-10 -2 -18 -9 -18 -15 0 -7 -5 -6 -14 1 -16 13 -32 -2
-21 -19 3 -5 0 -10 -7 -10 -16 0 -88 -73 -88 -89 0 -6 -18 -8 -50 -4 -45 5
-54 3 -78 -20 -36 -34 -101 -67 -132 -67 -14 0 -30 -4 -36 -8 -13 -9 -44 -76
-44 -96 0 -21 -43 -48 -64 -40 -9 3 -16 1 -16 -5 0 -6 10 -11 23 -12 12 0 16
-3 9 -6 -10 -4 -9 -10 5 -25 18 -20 18 -20 -13 -14 -22 5 -35 2 -44 -9 -9 -11
-9 -15 -1 -15 16 0 9 -52 -9 -66 -11 -9 -2 -14 44 -24 43 -9 60 -17 63 -31 3
-10 10 -19 15 -19 5 0 7 -4 4 -9 -3 -4 3 -16 14 -26 29 -26 55 -11 79 46 18
45 23 50 43 44 13 -4 25 -9 27 -11 7 -6 -11 -24 -25 -24 -19 0 -18 -29 1 -36
22 -9 18 -27 -5 -21 -24 6 -38 -11 -16 -19 20 -8 21 -24 1 -24 -8 0 -15 -4
-15 -10 0 -5 4 -10 10 -10 5 0 13 -12 16 -26 5 -21 2 -31 -17 -45 -15 -12 -19
-19 -10 -19 11 0 9 -4 -5 -14 -16 -13 -17 -18 -6 -35 10 -17 10 -21 -1 -21 -8
0 -19 10 -26 23 l-11 22 6 -23 c3 -13 0 -30 -8 -39 -11 -14 -10 -16 7 -11 16
4 20 0 22 -20 1 -17 -2 -21 -10 -13 -15 15 -24 14 -30 -3 -4 -10 -1 -13 9 -9
18 7 18 -11 -1 -31 -14 -13 -14 -16 1 -24 14 -8 12 -10 -11 -16 -26 -7 -27 -8
-10 -26 11 -12 13 -20 7 -20 -7 0 -12 -5 -12 -11 0 -26 -85 -88 -192 -142
-111 -55 -246 -143 -235 -153 3 -3 24 7 48 23 113 74 233 131 389 183 145 48
301 91 313 86 7 -2 5 -5 -4 -5 -28 -2 -345 -108 -436 -147 -95 -40 -153 -76
-135 -82 6 -2 8 -11 5 -20 -5 -13 1 -11 20 6 l25 24 -2 -34 c-4 -48 -5 -52
-12 -45 -4 3 -12 1 -19 -6 -6 -7 -25 -21 -40 -32 -79 -55 -129 -113 -171 -197
-24 -49 -48 -88 -52 -88 -9 0 -9 -25 1 -50 3 -8 10 -60 16 -115 6 -55 18 -134
26 -175 35 -174 47 -226 55 -245 4 -11 23 -74 41 -140 18 -66 39 -131 46 -145
7 -14 13 -33 13 -42 0 -10 3 -18 8 -18 4 0 15 -17 25 -37 27 -58 58 -106 111
-175 78 -99 116 -133 86 -77 -14 25 0 24 28 -1 25 -24 30 -52 7 -44 -26 10
-16 -3 18 -25 17 -11 52 -34 77 -51 53 -35 65 -37 48 -10 -7 11 -18 20 -25 20
-6 0 -15 5 -19 11 -8 13 24 5 70 -17 51 -24 38 -8 -16 21 -160 86 -235 169
-332 368 -119 241 -194 488 -216 710 -14 138 -12 270 4 264 15 -6 35 9 69 56
16 21 46 57 68 79 39 41 44 70 8 45 -35 -25 -88 -77 -105 -102 -20 -31 -30
-26 -13 7 40 74 131 147 260 207 99 46 392 142 402 132 17 -17 -3 -30 -75 -46
-130 -29 -378 -131 -378 -155 0 -30 208 17 326 74 53 25 102 46 109 46 8 0 15
-12 17 -27 2 -21 8 -28 23 -27 11 1 36 2 56 2 33 2 35 4 32 30 -3 19 2 31 16
40 20 12 21 10 21 -47 0 -33 3 -66 6 -75 4 -11 -2 -19 -20 -26 -14 -5 -26 -14
-26 -20 0 -5 -7 -10 -16 -10 -8 0 -12 5 -9 10 3 6 -3 10 -14 10 -24 0 -28 -15
-6 -24 17 -6 21 -56 5 -56 -5 0 -10 6 -10 13 0 8 -3 8 -9 -2 -11 -17 15 -57
41 -66 22 -8 88 -71 88 -85 0 -5 -4 -10 -10 -10 -5 0 -10 -4 -10 -10 0 -15 68
-24 85 -10 15 12 36 3 58 -25 4 -6 10 -5 16 4 6 9 11 10 15 2 4 -6 4 -11 -1
-11 -10 0 19 -20 29 -20 4 0 5 8 1 18 -5 14 -3 15 7 5 8 -7 14 -36 14 -67 1
-29 5 -51 10 -48 5 3 7 -6 4 -20 -4 -21 -1 -24 13 -21 11 3 27 2 36 -2 17 -6
17 -7 0 -16 -9 -6 -22 -7 -27 -4 -6 3 -10 -3 -10 -14 0 -21 21 -27 73 -23 9 1
17 -3 17 -8 0 -14 34 -12 48 2 9 9 15 9 24 0 7 -7 19 -12 28 -12 13 0 13 1 0
10 -18 12 -2 12 25 0 11 -5 14 -9 8 -9 -7 -1 -13 -8 -13 -17 0 -12 7 -14 33
-9 17 4 29 4 25 0 -4 -5 -3 -14 3 -22 9 -10 15 -11 26 -2 7 7 16 9 20 5 9 -8
-27 -46 -45 -46 -9 0 -12 -6 -8 -16 4 -12 2 -15 -9 -11 -20 8 -29 -11 -15 -28
19 -23 -5 -46 -39 -39 l-26 7 28 -31 c21 -21 25 -31 15 -35 -11 -4 -11 -7 1
-18 8 -8 11 -9 7 -2 -14 26 16 23 52 -5 57 -45 135 -98 155 -105 13 -5 16 -13
12 -27 -4 -13 0 -23 14 -32 12 -7 21 -20 21 -29 0 -9 8 -19 19 -22 14 -3 17 0
14 14 -3 11 -10 19 -15 19 -5 0 -6 4 -3 10 11 18 70 -3 124 -44 51 -38 54 -39
67 -21 11 14 17 16 26 7 8 -8 5 -14 -14 -21 -14 -5 -28 -17 -32 -26 -4 -13 -2
-16 9 -12 8 4 17 2 21 -4 3 -6 -3 -13 -15 -16 -12 -3 -21 -9 -21 -14 0 -5 11
-4 25 1 21 8 25 7 25 -10 0 -26 9 -25 42 3 18 16 24 28 18 37 -4 7 -6 19 -3
26 4 10 15 7 44 -12 28 -18 39 -20 39 -10 0 8 7 16 15 20 18 6 19 1 5 -24 -7
-13 -6 -21 5 -30 11 -9 12 -15 2 -25 -7 -7 -15 -11 -20 -8 -4 2 -6 0 -5 -6 2
-5 -5 -16 -16 -23 -16 -13 -17 -16 -3 -29 10 -11 12 -20 5 -32 -5 -10 -6 -22
-3 -27 4 -6 3 -10 -2 -9 -20 3 -22 -2 -6 -21 25 -29 32 -25 26 17 -5 31 -4 35
11 30 12 -5 19 1 26 19 11 29 6 44 -16 44 -20 0 -12 24 9 28 11 2 19 -6 23
-22 7 -30 19 -33 33 -8 16 27 13 6 -5 -32 -16 -33 -16 -35 5 -64 11 -17 21
-35 21 -40 0 -5 7 -23 15 -38 20 -40 3 -55 -66 -55 -56 -1 -129 23 -129 42 0
6 -7 17 -15 25 -8 9 -15 12 -15 7 0 -5 5 -14 12 -21 7 -7 9 -12 5 -12 -12 0
-157 80 -192 105 -16 12 -56 36 -88 54 -42 24 -55 36 -46 42 11 7 11 11 1 21
-10 10 -15 10 -22 -2 -7 -11 -10 -11 -10 -2 0 7 10 16 22 21 21 8 21 8 -5 15
-16 3 -25 11 -22 16 7 12 -16 25 -24 13 -3 -6 -13 -12 -21 -15 -10 -4 -6 -8
13 -13 15 -4 27 -14 27 -22 0 -8 -3 -13 -7 -11 -136 69 -190 89 -263 95 -69 5
-83 3 -133 -20 -31 -14 -78 -47 -105 -74 -54 -54 -115 -167 -106 -195 3 -10 1
-18 -5 -18 -6 0 -11 -5 -11 -11 0 -5 -10 -31 -21 -57 -12 -26 -33 -71 -46
-100 -26 -58 -49 -72 -114 -72 -28 0 -38 -4 -33 -11 5 -9 -7 -10 -44 -5 -34 4
-52 3 -52 -4 0 -5 12 -10 28 -11 15 0 36 -4 47 -9 17 -7 14 -9 -13 -9 -19 -1
-31 -5 -27 -11 10 -16 40 -12 65 10 13 11 33 20 45 20 13 0 28 7 35 15 7 8 16
15 21 15 16 0 10 -20 -13 -44 -46 -46 -51 -55 -39 -70 8 -10 9 -16 1 -21 -6
-4 -9 -1 -8 6 2 6 -10 15 -26 20 -22 6 -26 5 -18 -3 17 -17 15 -26 -5 -31 -12
-3 -8 -5 9 -6 31 -1 46 -18 24 -27 -9 -3 -16 -11 -16 -16 0 -6 7 -4 16 3 9 7
32 14 51 15 32 1 34 -1 17 -13 -14 -10 -19 -10 -26 0 -6 9 -10 9 -16 0 -9 -14
-63 -38 -94 -42 -8 -1 -5 -7 6 -16 19 -14 17 -15 -17 -15 -33 0 -46 -9 -107
-69 -80 -78 -88 -101 -35 -101 19 0 35 -4 35 -9 0 -6 8 -10 18 -9 24 0 95 -13
107 -20 14 -9 -32 -20 -89 -21 -90 -2 -36 -16 147 -38 37 -4 52 -2 67 12 11
10 23 15 27 12 3 -4 2 -7 -4 -7 -6 0 -10 -8 -9 -17 1 -17 -3 -19 -44 -22 -11
0 -20 -8 -20 -17 0 -10 6 -14 15 -10 9 3 15 0 15 -9 0 -8 -6 -12 -12 -10 -9 4
-13 -7 -12 -37 0 -24 -3 -48 -8 -54 -4 -6 -4 -25 1 -42 6 -19 6 -34 0 -37 -5
-4 -2 -19 6 -36 9 -16 13 -34 10 -39 -3 -5 -1 -18 4 -28 7 -13 7 -22 -1 -30
-9 -9 -9 -12 0 -12 7 0 12 -11 12 -25 0 -14 4 -25 10 -25 5 0 7 -13 4 -30 -4
-16 -2 -30 2 -30 5 0 10 -23 12 -52 3 -79 9 -90 35 -77 l22 12 -22 -25 c-14
-14 -23 -37 -23 -55 0 -18 -8 -39 -17 -48 -13 -14 -14 -21 -5 -36 14 -22 15
-29 4 -29 -4 0 -13 9 -20 21 -11 18 -11 24 4 40 29 32 10 30 -29 -2 -40 -33
-46 -32 -21 5 14 23 14 25 -14 41 -21 13 -36 38 -62 104 -39 101 -77 165 -140
241 -64 77 -92 117 -119 173 -13 27 -29 51 -37 54 -8 3 -14 9 -14 15 0 5 4 6
10 3 6 -3 7 1 4 10 -4 9 -9 13 -12 10 -3 -3 -12 7 -19 22 -12 26 -13 27 -8 3
3 -14 12 -59 20 -100 8 -41 21 -97 30 -125 l15 -50 -5 55 c-2 32 -1 49 4 40
10 -18 18 -88 26 -220 3 -52 10 -135 16 -185 5 -49 9 -101 9 -115 -1 -14 1
-36 4 -50 3 -14 9 -59 15 -100 5 -42 12 -82 15 -90 7 -19 17 -69 20 -95 1 -11
13 -62 25 -113 l23 -92 1674 0 1674 0 0 1414 c0 1280 -1 1414 -16 1420 -9 3
-31 6 -50 6 -19 0 -34 5 -34 10 0 6 4 10 9 10 5 0 19 25 32 55 12 30 31 57 41
61 14 4 18 16 18 53 0 54 -7 66 -28 48 -12 -9 -16 -9 -19 1 -3 6 -9 9 -14 6
-6 -3 -17 0 -26 8 -12 9 -15 9 -9 1 4 -7 3 -13 -3 -13 -5 0 -13 5 -17 11 -4 8
-9 7 -16 -2 -7 -10 -8 -6 -4 13 3 15 2 30 -4 33 -5 3 -10 -1 -10 -9 0 -17 -17
-21 -38 -8 -9 7 -10 15 -3 35 7 17 7 28 1 32 -6 4 -10 15 -10 26 0 10 -5 19
-11 19 -6 0 -9 -7 -5 -15 3 -8 1 -15 -5 -15 -16 0 -23 31 -9 40 11 7 11 11 1
23 -8 10 -8 17 -2 21 6 4 22 -18 36 -47 44 -93 94 -131 159 -120 l36 6 0 227
0 228 -30 4 c-25 4 -30 2 -25 -11 5 -12 3 -13 -6 -4 -6 6 -18 9 -25 6 -8 -3
-14 -1 -14 5 0 6 -9 8 -20 5 -14 -4 -19 -11 -15 -23 3 -10 0 -22 -6 -26 -8 -4
-9 -3 -5 5 4 6 2 19 -5 27 -12 14 -14 14 -26 -2 -7 -10 -13 -13 -13 -7 0 18
23 30 75 38 28 5 53 9 58 11 4 1 18 2 32 3 17 1 25 7 25 19 0 26 -28 62 -49
62 -10 0 -30 11 -45 25 -15 14 -32 25 -39 25 -6 0 -30 -19 -53 -41 -41 -40
-44 -41 -73 -30 -42 18 -110 88 -131 136 -18 42 -92 137 -169 218 -25 26 -39
47 -32 47 16 0 6 51 -12 62 -8 5 -7 11 1 21 10 11 9 17 -3 27 -8 7 -15 21 -15
30 0 10 -6 21 -12 23 -7 3 -8 6 -2 6 12 1 6 58 -7 67 -5 3 -9 10 -9 16 0 6 7
5 17 -3 15 -13 15 -12 4 9 -6 12 -16 22 -21 22 -6 0 -10 9 -10 20 0 11 -4 20
-10 20 -5 0 -10 10 -10 22 0 21 0 21 16 2 14 -18 15 -18 4 4 -6 12 -14 22 -18
22 -11 0 -34 58 -28 69 4 5 0 15 -7 23 -7 7 -12 22 -12 33 0 11 -6 30 -14 43
-7 12 -10 22 -5 22 5 0 -2 7 -14 16 -12 8 -20 19 -17 24 3 4 -2 13 -10 20 -8
7 -15 23 -15 37 0 13 -4 22 -9 19 -16 -10 -42 6 -36 22 6 17 -29 55 -40 44 -4
-4 -5 2 -1 13 5 16 1 21 -16 22 -11 1 -25 8 -29 15 -7 11 -200 13 -1011 14
-552 1 -1011 0 -1020 -3z m166 -219 c20 -20 20 -44 0 -72 -15 -21 -15 -25 1
-42 11 -12 16 -29 13 -44 -4 -19 0 -26 19 -30 12 -4 23 -13 23 -21 0 -19 0
-19 39 1 29 14 34 14 56 0 31 -20 33 -72 6 -132 -33 -72 -100 -99 -123 -49
-12 27 -23 31 -34 14 -3 -6 -20 -9 -38 -6 -21 3 -35 -1 -42 -12 -7 -8 -24 -16
-40 -16 -22 -1 -30 -8 -36 -31 -15 -58 -72 -72 -113 -28 -59 63 -37 164 36
164 22 0 29 5 29 18 0 11 9 27 20 37 14 12 17 25 13 46 -3 17 0 35 8 45 11 14
10 19 -8 34 -19 15 -21 22 -12 53 11 41 25 54 76 73 51 18 88 17 107 -2z
m1354 -170 c9 -16 11 -16 33 0 29 20 59 21 85 1 24 -18 34 -19 34 -2 0 22 65
19 93 -3 30 -24 34 -24 53 -5 21 20 54 18 84 -5 30 -24 40 -25 40 -4 0 11 8
14 32 12 35 -3 52 -28 19 -28 -25 0 -28 -25 -4 -39 13 -7 14 -13 6 -23 -12
-15 -13 -49 -1 -42 11 7 48 -5 48 -17 0 -5 -15 -9 -34 -9 -25 0 -36 5 -41 19
-3 10 -14 21 -25 24 -12 3 -17 0 -14 -8 8 -19 -31 -28 -58 -14 -13 6 -35 26
-49 43 -22 25 -29 28 -41 18 -8 -6 -19 -9 -24 -4 -5 4 4 -8 20 -26 40 -43 19
-41 -24 3 -22 23 -29 35 -19 35 25 0 39 21 28 42 -7 13 -21 18 -50 18 -36 0
-40 -2 -33 -17 4 -10 8 -33 8 -52 1 -29 -5 -38 -31 -53 -28 -17 -35 -18 -65
-5 -41 17 -70 59 -66 95 2 17 -2 27 -9 26 -38 -3 -43 -5 -43 -18 0 -7 10 -17
23 -20 21 -6 21 -7 4 -20 -12 -10 -17 -24 -15 -43 2 -20 -2 -29 -14 -31 -13
-2 -18 6 -23 35 -4 21 -10 57 -14 80 -8 41 -8 42 23 46 17 2 36 5 43 5 7 1 16
-5 21 -14z m-137 -14 c25 -14 46 -59 41 -93 -4 -34 -35 -55 -94 -63 l-46 -6
-13 75 c-10 59 -16 74 -25 66 -15 -12 -8 -73 11 -104 17 -28 8 -45 -23 -45
-15 0 -62 -5 -104 -12 -69 -10 -80 -10 -96 5 -27 25 -50 22 -27 -3 18 -19 17
-20 -6 -20 -24 0 -85 39 -62 40 21 0 26 40 7 61 -33 37 -84 18 -84 -31 0 -32
17 -50 46 -50 23 0 41 -16 31 -27 -9 -8 -49 -8 -79 0 -22 6 -28 4 -28 -8 0 -8
-12 -17 -27 -20 -16 -4 -47 -10 -70 -16 -87 -19 -87 -19 -99 94 -6 68 -6 69
17 65 20 -3 25 -11 34 -63 5 -33 13 -59 18 -57 4 1 18 2 32 2 23 0 25 4 25 44
0 25 -4 48 -10 51 -5 3 -10 14 -10 24 0 25 60 38 72 16 7 -12 11 -12 28 5 29
29 66 35 111 17 37 -14 39 -14 39 3 0 20 39 35 45 17 1 -7 7 -34 11 -62 l9
-50 40 0 c26 0 40 4 39 13 -1 6 -2 26 -2 43 -2 22 -8 32 -22 36 -11 3 -20 14
-20 24 0 15 7 19 34 19 37 0 34 7 51 -109 5 -31 10 -40 16 -30 10 16 1 99 -12
114 -20 20 -8 34 34 38 89 8 149 7 168 -3z m-1473 -8 c-15 -38 -145 -232 -155
-232 -17 0 -10 13 73 143 35 53 68 97 75 97 6 0 9 -4 7 -8z m-195 -73 c4 -16
3 -18 -9 -8 -7 6 -11 15 -8 20 8 13 11 11 17 -12z m-23 -19 c0 -5 -5 -10 -11
-10 -5 0 -7 5 -4 10 3 6 8 10 11 10 2 0 4 -4 4 -10z m1097 -416 c-3 -3 -12 -4
-19 -1 -8 3 -5 6 6 6 11 1 17 -2 13 -5z m-590 -70 c-3 -3 -12 -4 -19 -1 -8 3
-5 6 6 6 11 1 17 -2 13 -5z m1979 -14 c32 -11 73 -32 89 -46 l30 -26 -39 23
c-22 13 -67 33 -100 45 -76 28 -61 31 20 4z m-2043 3 c-7 -2 -19 -2 -25 0 -7
3 -2 5 12 5 14 0 19 -2 13 -5z m-56 -9 c-3 -3 -12 -4 -19 -1 -8 3 -5 6 6 6 11
1 17 -2 13 -5z m-90 -20 c-3 -3 -12 -4 -19 -1 -8 3 -5 6 6 6 11 1 17 -2 13 -5z
m-57 -14 c-8 -5 -22 -10 -30 -10 -13 0 -13 1 0 10 8 5 22 10 30 10 13 0 13 -1
0 -10z m-375 -66 c-10 -7 -21 -11 -26 -9 -4 3 -9 0 -11 -6 -2 -7 -11 -10 -18
-7 -10 4 -6 10 15 19 17 7 34 20 39 29 8 12 10 12 14 1 3 -8 -3 -20 -13 -27z
m2789 -13 c4 -5 -3 -7 -14 -4 -23 6 -26 13 -6 13 8 0 17 -4 20 -9z m-2957
-207 c-3 -3 -12 -4 -19 -1 -8 3 -5 6 6 6 11 1 17 -2 13 -5z m3386 -69 c-5 -13
-23 -22 -23 -11 0 15 14 35 21 31 4 -3 6 -12 2 -20z m-1516 -7 c-3 -8 -6 -5
-6 6 -1 11 2 17 5 13 3 -3 4 -12 1 -19z m-1273 -69 c3 -17 3 -35 0 -40 -11
-19 -20 -7 -22 31 -3 47 13 54 22 9z m2706 -14 c10 -12 9 -15 -4 -15 -10 0
-15 4 -12 9 4 5 0 12 -6 14 -8 4 -9 6 -2 6 6 1 17 -6 24 -14z m46 -43 c1 -26
0 -41 -3 -33 -5 11 -7 11 -15 0 -6 -9 -7 1 -4 31 3 25 5 49 5 54 1 5 4 6 8 2
4 -3 8 -28 9 -54z m-1436 42 c0 -13 -54 -160 -62 -168 -14 -17 -9 16 13 84 12
36 23 71 25 78 3 12 24 18 24 6z m-1372 -47 c4 -29 -12 -37 -22 -11 -10 26 -7
46 7 42 6 -3 13 -17 15 -31z m1493 3 c21 -17 22 -19 6 -20 -26 0 -59 19 -52
31 9 14 20 11 46 -11z m-411 -35 c-11 -13 -11 -18 0 -28 10 -9 11 -9 6 1 -10
17 24 29 34 12 18 -29 -14 -47 -48 -26 -18 11 -15 56 4 56 14 0 14 -3 4 -15z
m-947 -79 c21 -16 22 -30 2 -22 -9 3 -18 -1 -22 -9 -5 -13 -7 -13 -19 2 -29
38 -1 59 39 29z m224 -208 c-3 -8 -6 -5 -6 6 -1 11 2 17 5 13 3 -3 4 -12 1
-19z m597 -37 c-6 -6 -11 1 -18 29 l-7 25 15 -25 c8 -14 12 -27 10 -29z m-43
-2 c11 -11 18 -23 15 -26 -7 -7 -46 26 -46 39 0 13 8 10 31 -13z m619 -9 c0
-5 -2 -10 -4 -10 -3 0 -8 5 -11 10 -3 6 -1 10 4 10 6 0 11 -4 11 -10z m-139
-137 c-10 -17 -10 -17 -11 0 0 9 -6 17 -12 18 -7 0 -4 4 7 8 24 10 30 -1 16
-26z m-770 -150 c13 -16 12 -17 -3 -4 -13 10 -18 10 -18 2 0 -8 -5 -7 -15 3
-8 8 -15 20 -15 26 0 14 32 -2 51 -27z m49 28 c0 -12 -28 -22 -34 -12 -3 5 -3
11 1 15 9 9 33 7 33 -3z m1090 -49 c0 -40 -15 -72 -35 -72 -18 0 -19 -2 2 70
17 64 33 64 33 2z m-985 38 c3 -5 1 -10 -4 -10 -6 0 -11 5 -11 10 0 6 2 10 4
10 3 0 8 -4 11 -10z m-78 -32 c-3 -7 -5 -2 -5 12 0 14 2 19 5 13 2 -7 2 -19 0
-25z m333 -83 c0 -8 -9 -15 -21 -15 -11 0 -17 -4 -14 -10 3 -5 2 -10 -4 -10
-17 0 -23 20 -11 35 16 19 50 19 50 0z m-280 -15 c12 -7 12 -12 2 -22 -9 -9
-12 -9 -12 4 0 9 -6 19 -12 21 -7 3 -8 6 -3 6 6 0 17 -4 25 -9z m1013 -20 c-7
-25 5 -26 23 -2 12 16 13 15 14 -5 0 -12 5 -25 11 -28 14 -9 28 -49 19 -55 -4
-3 -10 -15 -14 -27 -6 -19 -4 -23 14 -23 16 0 19 -4 12 -16 -7 -12 -27 -17
-83 -19 -41 -1 -82 -6 -93 -10 -16 -7 -17 -6 -7 14 11 20 10 22 -21 19 -49 -3
-73 15 -28 22 32 5 37 10 54 58 15 42 23 53 37 49 12 -3 16 0 12 10 -5 12 -1
14 14 9 14 -4 23 -1 27 9 8 22 15 18 9 -5z m-956 -27 c7 -20 -14 -23 -31 -4
-15 17 -15 18 6 16 12 -1 23 -6 25 -12z m57 1 c12 -5 13 -10 5 -25 -11 -21
-18 -23 -37 -11 -7 5 -10 16 -6 25 7 18 14 20 38 11z m229 -56 c18 -32 22 -45
12 -42 -8 4 -13 9 -11 13 2 3 -4 14 -14 24 -16 16 -18 16 -36 -8 -19 -25 -44
-34 -44 -15 0 6 5 10 11 10 6 0 9 7 6 15 -4 8 -2 17 3 20 5 3 7 12 4 19 -4 10
2 14 19 12 17 -1 31 -14 50 -48z m1598 -15 c-10 -17 -10 -16 -11 3 0 23 13 41
18 25 2 -6 -1 -18 -7 -28z m-1774 11 c-3 -3 -12 -4 -19 -1 -8 3 -5 6 6 6 11 1
17 -2 13 -5z m933 -103 c0 -5 3 -18 6 -28 5 -16 4 -16 -10 1 -18 23 -20 36 -6
36 6 0 10 -4 10 -9z m765 -249 c-7 -8 -35 7 -35 18 0 6 7 6 20 -2 10 -7 17
-14 15 -16z m15 -62 c0 -5 -2 -10 -4 -10 -3 0 -8 5 -11 10 -3 6 -1 10 4 10 6
0 11 -4 11 -10z m-2970 -150 c0 -5 -2 -10 -4 -10 -3 0 -8 5 -11 10 -3 6 -1 10
4 10 6 0 11 -4 11 -10z m360 -70 c0 -5 -5 -10 -11 -10 -5 0 -7 5 -4 10 3 6 8
10 11 10 2 0 4 -4 4 -10z m-63 -81 c2 -16 -1 -19 -9 -11 -5 5 -7 15 -4 21 10
15 12 14 13 -10z m153 -194 c7 -9 8 -15 2 -15 -5 0 -12 7 -16 15 -3 8 -4 15
-2 15 2 0 9 -7 16 -15z m-305 -34 c3 -5 -8 -9 -23 -9 -16 1 -35 -3 -43 -7 -12
-8 -12 -6 0 8 14 18 56 23 66 8z m320 -191 c-3 -5 -14 -10 -23 -10 -15 0 -15
2 -2 10 20 13 33 13 25 0z m105 -161 c0 -6 -4 -7 -10 -4 -5 3 -10 11 -10 16 0
6 5 7 10 4 6 -3 10 -11 10 -16z m-705 -88 c-8 -8 -13 3 -19 49 l-6 45 15 -45
c8 -24 12 -46 10 -49z m713 28 c4 -40 -13 -30 -24 15 -5 22 -4 28 7 24 8 -2
15 -20 17 -39z m-4 -95 c3 -8 2 -12 -4 -9 -6 3 -10 10 -10 16 0 14 7 11 14 -7z
m40 -109 c-7 -16 -24 -21 -24 -6 0 8 7 13 27 20 1 1 0 -6 -3 -14z m516 -55 c0
-5 -5 -10 -11 -10 -5 0 -7 5 -4 10 3 6 8 10 11 10 2 0 4 -4 4 -10z m-43 -18
c-9 -2 -14 -8 -11 -14 4 -6 3 -13 -2 -17 -15 -10 -51 -65 -58 -89 -8 -25 -26
-30 -26 -7 0 21 -16 19 -25 -2 -18 -41 -12 -56 13 -31 7 7 12 10 12 6 0 -7
-61 -70 -65 -66 -1 2 4 23 11 48 19 61 127 192 151 182 17 -6 17 -7 0 -10z
m-27 -106 c0 -3 -4 -8 -10 -11 -5 -3 -10 -1 -10 4 0 6 5 11 10 11 6 0 10 -2
10 -4z m-656 -52 c7 -19 2 -18 -19 6 -16 17 -16 20 -3 15 9 -4 19 -13 22 -21z
m36 22 c0 -2 -7 -6 -15 -10 -8 -3 -15 -1 -15 4 0 6 7 10 15 10 8 0 15 -2 15
-4z m1475 -58 c-10 -24 -23 -56 -30 -73 -6 -16 -17 -41 -23 -55 l-12 -25 6 25
c12 49 66 181 72 176 3 -3 -3 -25 -13 -48z m-1515 4 c0 -4 -9 -13 -20 -20 -22
-13 -27 -3 -8 16 14 14 28 16 28 4z m610 5 c0 -2 -10 -12 -22 -23 l-23 -19 19
23 c18 21 26 27 26 19z m-90 -61 c0 -2 -8 -10 -17 -17 -16 -13 -17 -12 -4 4
13 16 21 21 21 13z m-599 -37 c-17 -18 -21 -20 -21 -6 0 9 8 20 17 26 26 14
28 5 4 -20z"/>
<path d="M1973 4620 c-23 -14 -33 -27 -33 -45 0 -22 4 -25 34 -25 42 0 88 34
84 64 -4 29 -44 32 -85 6z"/>
<path d="M1972 4504 c-15 -10 -22 -24 -20 -37 6 -46 108 -13 108 35 0 23 -56
25 -88 2z"/>
<path d="M2061 4404 c-28 -36 -29 -94 -1 -94 12 0 28 13 40 33 39 63 5 117
-39 61z"/>
<path d="M2167 4402 c-44 -48 -41 -122 3 -122 43 0 82 119 44 134 -24 9 -29 8
-47 -12z"/>
<path d="M1927 4379 c-23 -13 -22 -62 3 -84 34 -31 69 -1 56 50 -8 31 -35 47
-59 34z"/>
<path d="M1819 4286 c-14 -29 12 -86 39 -86 38 0 55 48 32 91 -15 27 -58 25
-71 -5z"/>
<path d="M3492 4464 c-59 -41 13 -130 73 -90 32 21 32 56 2 84 -28 26 -45 27
-75 6z m23 -24 c-3 -5 -12 -10 -18 -10 -7 0 -6 4 3 10 19 12 23 12 15 0z"/>
<path d="M3750 4428 c4 -21 13 -44 20 -53 14 -17 60 -21 60 -5 0 6 9 10 20 10
29 0 26 38 -4 50 -13 5 -26 14 -28 20 -2 6 -19 12 -39 13 l-36 3 7 -38z"/>
<path d="M3716 4441 c-3 -5 1 -11 9 -15 8 -3 15 -1 15 4 0 13 -18 22 -24 11z"/>
<path d="M3226 4408 c8 -54 16 -62 48 -54 19 5 26 13 26 32 0 42 -18 64 -50
64 -30 0 -30 -1 -24 -42z"/>
<path d="M2511 749 c-7 -12 -10 -23 -8 -26 3 -3 11 5 17 17 15 28 8 35 -9 9z"/>
<path d="M1412 4630 c-7 -11 -12 -25 -12 -32 1 -7 8 0 16 15 18 33 14 46 -4
17z"/>
<path d="M4225 4600 c3 -5 11 -10 16 -10 6 0 7 5 4 10 -3 6 -11 10 -16 10 -6
0 -7 -4 -4 -10z"/>
<path d="M1382 4560 c-7 -11 -12 -25 -12 -32 1 -7 8 0 16 15 18 33 14 46 -4
17z"/>
<path d="M1326 4305 c-11 -8 -16 -18 -13 -22 4 -3 14 2 22 13 9 12 14 14 15 6
0 -7 5 -10 10 -7 11 7 4 25 -8 25 -4 0 -16 -7 -26 -15z"/>
<path d="M1530 4130 c0 -5 5 -10 10 -10 6 0 10 5 10 10 0 6 -4 10 -10 10 -5 0
-10 -4 -10 -10z"/>
<path d="M4503 3994 c5 -62 35 -128 62 -133 16 -3 17 -1 7 12 -7 8 -11 26 -8
41 3 16 -3 34 -15 50 -10 13 -19 28 -19 33 0 5 -7 18 -16 29 -14 18 -15 16
-11 -32z"/>
<path d="M1175 3570 c-3 -5 -2 -10 4 -10 5 0 13 5 16 10 3 6 2 10 -4 10 -5 0
-13 -4 -16 -10z"/>
<path d="M1240 3540 c0 -5 5 -10 10 -10 6 0 10 5 10 10 0 6 -4 10 -10 10 -5 0
-10 -4 -10 -10z"/>
<path d="M1614 3403 c-6 -10 -9 -27 -8 -38 7 -39 7 -60 0 -86 -5 -19 -3 -28 7
-32 12 -4 15 9 19 66 3 40 7 78 9 86 6 21 -15 23 -27 4z"/>
<path d="M1498 3305 c2 -14 6 -25 8 -25 2 0 4 11 4 25 0 14 -4 25 -9 25 -4 0
-6 -11 -3 -25z"/>
<path d="M1510 3253 c0 -13 5 -23 10 -23 13 0 13 11 0 30 -8 12 -10 11 -10 -7z"/>
<path d="M1632 3180 c0 -14 2 -19 5 -12 2 6 2 18 0 25 -3 6 -5 1 -5 -13z"/>
<path d="M4700 3130 c0 -5 5 -10 10 -10 6 0 10 5 10 10 0 6 -4 10 -10 10 -5 0
-10 -4 -10 -10z"/>
<path d="M2320 2755 c-14 -16 -10 -18 14 -9 9 3 16 10 16 15 0 14 -16 11 -30
-6z"/>
<path d="M2130 2720 c0 -5 7 -10 16 -10 8 0 12 5 9 10 -3 6 -10 10 -16 10 -5
0 -9 -4 -9 -10z"/>
<path d="M2145 2670 c3 -5 8 -10 11 -10 2 0 4 5 4 10 0 6 -5 10 -11 10 -5 0
-7 -4 -4 -10z"/>
<path d="M2284 2643 c-9 -15 -14 -16 -27 -5 -12 10 -17 10 -23 1 -4 -7 -3 -9
4 -5 25 15 19 -13 -10 -42 -42 -44 -16 -41 30 3 43 41 46 41 75 15 12 -10 39
-34 60 -52 36 -32 37 -34 23 -60 -16 -31 -12 -36 10 -13 17 17 50 20 59 5 3
-5 0 -7 -8 -5 -7 3 -22 -4 -33 -16 l-19 -22 25 8 c14 5 34 9 45 10 47 4 96
-41 56 -52 -12 -3 -17 -11 -14 -19 5 -13 -12 -19 -44 -15 -8 1 -10 -5 -7 -13
5 -12 10 -13 26 -5 11 6 26 8 33 5 11 -4 65 51 65 67 0 2 -42 31 -92 65 -51
34 -104 72 -118 84 -27 25 -97 78 -102 78 -2 0 -8 -8 -14 -17z"/>
<path d="M2387 2634 c-13 -13 -7 -24 14 -24 11 0 19 5 17 12 -5 14 -22 21 -31
12z"/>
<path d="M2058 2563 c7 -3 16 -2 19 1 4 3 -2 6 -13 5 -11 0 -14 -3 -6 -6z"/>
<path d="M2325 2560 c3 -5 13 -10 21 -10 8 0 14 5 14 10 0 6 -9 10 -21 10 -11
0 -17 -4 -14 -10z"/>
<path d="M2265 2540 c-3 -6 1 -7 9 -4 18 7 21 14 7 14 -6 0 -13 -4 -16 -10z"/>
<path d="M2490 2539 c0 -6 7 -8 16 -5 8 3 13 2 10 -3 -7 -10 22 -37 30 -28 8
8 -28 47 -43 47 -7 0 -13 -5 -13 -11z"/>
<path d="M2155 2520 c-3 -5 -2 -10 4 -10 5 0 13 5 16 10 3 6 2 10 -4 10 -5 0
-13 -4 -16 -10z"/>
<path d="M2404 2395 c-10 -8 -14 -15 -8 -15 6 0 17 7 24 15 16 19 9 19 -16 0z"/>
<path d="M2620 2366 c0 -32 10 -56 22 -56 21 0 47 -46 48 -82 0 -40 13 -49 28
-21 10 17 22 14 60 -14 23 -16 24 -16 20 8 -2 20 2 25 25 27 15 2 27 7 27 12
0 13 -33 22 -40 10 -4 -6 -13 -12 -21 -13 -8 -2 -19 -6 -24 -9 -17 -10 -37 7
-33 28 4 23 33 25 32 3 -2 -19 17 -19 40 0 23 19 20 30 -10 41 -19 8 -31 7
-41 -1 -20 -17 -41 4 -24 25 10 12 7 17 -18 31 -30 15 -31 15 -31 -5 0 -11 7
-20 15 -20 20 0 19 -36 -1 -44 -12 -4 -15 -2 -10 9 3 9 0 15 -9 15 -11 0 -15
11 -15 40 0 33 -3 40 -20 40 -14 0 -20 -7 -20 -24z"/>
<path d="M2601 2364 c0 -11 3 -14 6 -6 3 7 2 16 -1 19 -3 4 -6 -2 -5 -13z"/>
<path d="M2752 2358 c6 -18 28 -21 28 -4 0 9 -7 16 -16 16 -9 0 -14 -5 -12
-12z"/>
<path d="M2950 2290 c0 -5 5 -10 11 -10 5 0 7 5 4 10 -3 6 -8 10 -11 10 -2 0
-4 -4 -4 -10z"/>
<path d="M2897 2236 c-9 -7 -17 -21 -17 -30 0 -10 -4 -14 -10 -11 -5 3 -10 -3
-10 -14 0 -17 6 -21 35 -21 42 0 55 22 31 49 -13 14 -14 20 -5 23 8 3 9 7 3
10 -5 4 -17 1 -27 -6z"/>
<path d="M2825 2180 c3 -5 10 -10 16 -10 5 0 9 5 9 10 0 6 -7 10 -16 10 -8 0
-12 -4 -9 -10z"/>
<path d="M2770 2159 c0 -5 5 -7 10 -4 6 3 10 8 10 11 0 2 -4 4 -10 4 -5 0 -10
-5 -10 -11z"/>
<path d="M2855 2140 c-3 -6 1 -7 9 -4 18 7 21 14 7 14 -6 0 -13 -4 -16 -10z"/>
<path d="M3052 2108 c5 -32 28 -35 28 -4 0 17 -5 26 -16 26 -10 0 -14 -7 -12
-22z"/>
<path d="M2920 2110 c-13 -8 -12 -10 3 -10 9 0 17 5 17 10 0 12 -1 12 -20 0z"/>
<path d="M1115 2070 c-3 -6 1 -7 9 -4 18 7 21 14 7 14 -6 0 -13 -4 -16 -10z"/>
<path d="M1325 1790 c-44 -21 -86 -39 -92 -39 -7 -1 -13 -6 -13 -11 0 -7 6 -7
19 0 30 16 43 12 36 -10 -11 -35 19 -23 45 19 24 38 26 39 53 24 27 -14 28
-13 18 5 -9 17 -7 21 14 26 25 6 35 27 13 25 -7 0 -49 -18 -93 -39z"/>
<path d="M1347 1755 c3 -8 9 -12 14 -9 12 7 11 11 -5 17 -10 4 -13 1 -9 -8z"/>
<path d="M1715 1760 c-3 -5 -2 -10 4 -10 5 0 13 5 16 10 3 6 2 10 -4 10 -5 0
-13 -4 -16 -10z"/>
<path d="M1045 1668 c-70 -30 -81 -38 -50 -33 22 4 46 12 54 18 11 9 15 9 18
0 3 -7 12 -3 27 10 12 12 31 27 42 34 36 23 -1 11 -91 -29z"/>
<path d="M855 1590 c-96 -38 -155 -66 -155 -73 0 -5 6 -5 13 1 8 7 16 6 25 -4
10 -10 10 -14 1 -14 -7 0 -10 -3 -6 -6 3 -4 14 -4 23 0 14 5 14 9 3 23 -13 15
-12 15 10 4 19 -11 25 -11 32 0 5 8 7 19 4 26 -4 13 29 28 44 19 9 -6 37 21
30 28 -2 2 -13 0 -24 -4z"/>
<path d="M950 1589 c0 -5 5 -7 10 -4 6 3 10 8 10 11 0 2 -4 4 -10 4 -5 0 -10
-5 -10 -11z"/>
<path d="M523 1454 c-18 -8 -33 -21 -33 -29 0 -18 16 -20 27 -2 4 7 19 21 33
30 29 20 17 21 -27 1z"/>
<path d="M556 1424 c-5 -12 -2 -15 10 -10 8 3 18 6 20 6 3 0 2 5 -1 10 -9 15
-22 12 -29 -6z"/>
<path d="M500 1400 c-8 -5 -11 -12 -7 -16 4 -4 13 -2 19 4 15 15 7 24 -12 12z"/>
<path d="M306 1362 c-15 -25 -25 -62 -16 -62 6 0 10 8 10 18 0 10 5 23 12 30
6 6 9 14 6 17 -3 4 -9 2 -12 -3z"/>
<path d="M213 1318 c-20 -10 -32 -28 -19 -28 16 0 56 21 56 30 0 12 -8 12 -37
-2z"/>
<path d="M1323 1299 c-2 -29 -1 -30 15 -16 19 17 37 6 43 -28 2 -10 10 -20 18
-23 10 -3 12 0 8 12 -8 20 -3 20 18 -1 14 -14 18 -14 26 -2 5 8 7 20 4 27 -2
6 0 12 5 12 21 0 9 31 -16 40 -39 15 -64 12 -64 -7 -1 -17 -1 -17 -11 0 -17
29 -44 21 -46 -14z"/>
<path d="M1577 1299 c-9 -6 -17 -18 -17 -27 1 -15 3 -14 16 3 9 12 18 16 22
10 13 -18 42 -17 41 2 0 12 -2 13 -6 5 -4 -11 -8 -10 -22 2 -11 10 -21 12 -34
5z"/>
<path d="M1640 1251 c-13 -47 -13 -51 4 -45 8 3 16 18 18 32 2 19 9 27 21 26
9 -1 17 2 17 8 0 5 5 6 12 2 6 -4 8 -3 4 4 -3 6 -20 10 -36 10 -26 -1 -31 -6
-40 -37z"/>
<path d="M57 1254 c-16 -9 -27 -18 -24 -20 7 -7 57 18 57 28 0 10 1 10 -33 -8z"/>
<path d="M170 1260 c0 -5 4 -10 9 -10 6 0 13 5 16 10 3 6 -1 10 -9 10 -9 0
-16 -4 -16 -10z"/>
<path d="M1698 1253 c-10 -2 -18 -12 -17 -21 1 -26 15 -57 21 -46 7 11 21 74
16 73 -2 -1 -11 -3 -20 -6z"/>
<path d="M57 1209 c7 -7 15 -10 18 -7 3 3 -2 9 -12 12 -14 6 -15 5 -6 -5z"/>
<path d="M1685 1150 c-3 -5 -1 -10 4 -10 6 0 11 5 11 10 0 6 -2 10 -4 10 -3 0
-8 -4 -11 -10z"/>
<path d="M1620 921 c0 -5 9 -11 20 -14 16 -4 19 -11 14 -35 -4 -19 -1 -32 6
-37 10 -6 12 -1 8 19 -3 14 -1 26 3 26 5 0 9 -7 9 -17 0 -9 3 -14 6 -10 8 8
-5 44 -22 62 -17 16 -44 20 -44 6z"/>
<path d="M1690 810 c0 -5 5 -10 10 -10 6 0 10 5 10 10 0 6 -4 10 -10 10 -5 0
-10 -4 -10 -10z"/>
<path d="M1665 800 c-3 -5 -1 -10 4 -10 6 0 11 5 11 10 0 6 -2 10 -4 10 -3 0
-8 -4 -11 -10z"/>
<path d="M1707 733 c-4 -6 0 -16 8 -23 21 -17 28 -8 11 15 -8 11 -15 14 -19 8z"/>
<path d="M992 101 c-15 -13 -18 -21 -10 -24 7 -3 4 -6 -8 -6 -11 -1 -35 -17
-53 -36 l-31 -35 45 0 c37 0 45 3 45 18 0 11 9 27 20 37 11 10 18 20 15 23 -2
3 0 13 6 23 12 24 0 24 -29 0z"/>
</g>
</svg>
